<?xml version="1.0" encoding="UTF-8"?>
<svg xmlns="http://www.w3.org/2000/svg" viewBox="0 0 512 512" role="img" aria-labelledby="title desc">
  <title id="title">Monogram D elephant logo</title>
  <desc id="desc">A stylized D that hides an elephant head and trunk.</desc>
  
  
    <rect width="512" height="512" rx="72" fill="#FFFFFF" />
    <path d="M170 112 H226 C330 112 396 176 396 256 C396 336 330 400 226 400 H170 Z" fill="#DBEAFE" stroke="#1D4ED8" stroke-width="18" stroke-linejoin="round" />
    <path d="M220 168 H228 C292 168 336 206 336 256 C336 306 292 344 228 344 H220 Z" fill="#FFFFFF" />
    <path d="M282 186 C316 194 340 220 346 252" fill="none" stroke="#4F46E5" stroke-width="14" stroke-linecap="round" />
    <path d="M308 252 C326 270 334 296 326 320 C318 344 290 352 274 338 C260 326 260 304 276 294 C292 284 310 294 308 314" fill="none" stroke="#1D4ED8" stroke-width="18" stroke-linecap="round" stroke-linejoin="round" />
    <circle cx="286" cy="230" r="8" fill="#0F172A" />
    <path d="M154 132 V382" stroke="#0F172A" stroke-width="14" stroke-linecap="round" />
    
</svg>
