<?xml version="1.0" encoding="UTF-8"?>
<svg xmlns="http://www.w3.org/2000/svg" viewBox="0 0 512 512" role="img" aria-labelledby="title desc">
  <title id="title">DEL abstract monogram logo</title>
  <desc id="desc">A transparent DEL monogram with an internal E and L, using the D curve as the elephant trunk.</desc>
  
  
    <path d="M142 118 H232 C298 118 348 134 382 164 C414 192 430 228 430 270 C430 306 418 334 394 352 C376 366 356 368 344 360 C330 350 326 334 336 322 C346 310 364 308 376 316 C388 326 390 344 386 366 C378 404 350 424 306 428 H142 V118" fill="none" stroke="#1D4ED8" stroke-width="24" stroke-linecap="round" stroke-linejoin="round" />
    <path d="M190 184 H258" stroke="#4F46E5" stroke-width="18" stroke-linecap="round" />
    <path d="M190 248 H246" stroke="#4F46E5" stroke-width="18" stroke-linecap="round" />
    <path d="M190 312 H258" stroke="#4F46E5" stroke-width="18" stroke-linecap="round" />
    <path d="M286 190 V322 H334" fill="none" stroke="#0EA5E9" stroke-width="18" stroke-linecap="round" stroke-linejoin="round" />
    <circle cx="314" cy="216" r="8" fill="#0F172A" />
    
</svg>
