<?xml version="1.0" encoding="UTF-8"?>
<svg xmlns="http://www.w3.org/2000/svg" viewBox="0 0 512 512" role="img" aria-labelledby="title desc">
  <title id="title">DEL abstract monogram logo for light theme</title>
  <desc id="desc">A high-contrast DEL monogram for light backgrounds with a mirrored trunk shape standing in for the L.</desc>
  
  
    <path d="M142 118 H228 C306 118 366 144 398 194 C416 222 426 254 426 272 C426 340 394 388 336 414 C306 428 268 428 228 428 H142 V118" fill="none" stroke="#1E3A8A" stroke-width="24" stroke-linecap="round" stroke-linejoin="round" />
    <path d="M190 184 H258" stroke="#4338CA" stroke-width="18" stroke-linecap="round" />
    <path d="M190 248 H246" stroke="#4338CA" stroke-width="18" stroke-linecap="round" />
    <path d="M190 312 H258" stroke="#4338CA" stroke-width="18" stroke-linecap="round" />
    <path d="M318 188 C294 214 284 250 290 286 C294 314 286 338 268 356 C250 374 226 384 200 384" fill="none" stroke="#0369A1" stroke-width="18" stroke-linecap="round" stroke-linejoin="round" />
    <circle cx="322" cy="222" r="8" fill="#020617" />
    
</svg>
