<svg xmlns="http://www.w3.org/2000/svg" viewBox="0 0 1000 1000" width="100%" height="100%">
  <path d="M 711.62 465.36 L 721.96 439.66 L 727.28 419.87 L 727.28 340.13 L 721.96 320.34 L 711.62 294.35 L 691.24 260.38 L 674.11 240.00 L 644.87 214.30 L 615.93 195.70 L 576.94 179.16 L 541.50 170.30 L 272.72 170.00 L 272.72 334.51 L 380.23 334.51 L 381.12 270.13 L 516.69 271.01 L 539.14 276.03 L 556.27 283.12 L 562.47 286.37 L 578.71 297.59 L 600.86 321.22 L 611.79 341.60 L 617.41 360.51 L 618.59 369.07 L 617.41 399.49 L 611.79 418.40 L 600.86 438.78 L 587.28 454.73 L 578.71 462.41 L 562.47 473.63 L 539.14 483.97 L 516.69 488.99 L 381.12 489.87 L 380.23 425.49 L 272.72 425.49 L 272.72 590.00 L 541.50 589.70 L 576.94 580.84 L 590.82 575.82 L 615.93 564.30 L 644.87 545.70 L 674.11 520.00 L 691.24 499.62 L 697.45 490.76 L 711.62 465.65 Z M 437.24 328.61 L 512.26 328.90 L 519.64 330.68 L 535.89 338.06 L 550.65 352.53 L 558.04 369.96 L 558.04 390.04 L 550.65 407.47 L 535.89 421.94 L 512.26 431.10 L 429.85 431.10 L 429.85 328.90 L 436.94 328.61 Z" fill="#FFFFFF" fill-rule="evenodd" />
  <text x="500" y="730" font-family="system-ui, -apple-system, sans-serif" font-size="110" letter-spacing="-0.03em" text-anchor="middle">
    <tspan font-weight="400" fill="#E5E7EB">de-</tspan><tspan font-weight="800" fill="#FFFFFF">labs</tspan>
  </text>
</svg>