<svg xmlns="http://www.w3.org/2000/svg" viewBox="0 0 2400 600" width="100%" height="100%">
  <path d="M 526.74 391.46 L 537.82 363.92 L 543.51 342.72 L 543.51 257.28 L 537.82 236.08 L 526.74 208.23 L 504.91 171.84 L 486.55 150.00 L 455.22 122.47 L 424.21 102.53 L 382.44 84.81 L 344.46 75.32 L 56.49 75.00 L 56.49 251.27 L 171.68 251.27 L 172.63 182.28 L 317.88 183.23 L 341.93 188.61 L 360.28 196.20 L 366.93 199.68 L 384.34 211.71 L 408.07 237.03 L 419.78 258.86 L 425.79 279.11 L 427.06 288.29 L 425.79 320.89 L 419.78 341.14 L 408.07 362.97 L 393.51 380.06 L 384.34 388.29 L 366.93 400.32 L 341.93 411.39 L 317.88 416.77 L 172.63 417.72 L 171.68 348.73 L 56.49 348.73 L 56.49 525.00 L 344.46 524.68 L 382.44 515.19 L 397.31 509.81 L 424.21 497.47 L 455.22 477.53 L 486.55 450.00 L 504.91 428.16 L 511.55 418.67 L 526.74 391.77 Z M 232.75 244.94 L 313.13 245.25 L 321.04 247.15 L 338.45 255.06 L 354.27 270.57 L 362.18 289.24 L 362.18 310.76 L 354.27 329.43 L 338.45 344.94 L 313.13 354.75 L 224.84 354.75 L 224.84 245.25 L 232.44 244.94 Z" fill="#000000" fill-rule="evenodd" />
  <text x="580" y="380" font-family="system-ui, -apple-system, sans-serif" font-size="240" letter-spacing="-0.03em">
    <tspan font-weight="400" fill="#4B5563">de-</tspan><tspan font-weight="800" fill="#000000">labs</tspan>
  </text>
</svg>